<?xml version="1.0" encoding="UTF-8"?>
<svg width="229px" height="68px" viewBox="0 0 229 68" version="1.1" xmlns="http://www.w3.org/2000/svg" xmlns:xlink="http://www.w3.org/1999/xlink">
    <!-- Generator: Sketch 48.2 (47327) - http://www.bohemiancoding.com/sketch -->
    <title>Group 5</title>
    <desc>Created with Sketch.</desc>
    <defs></defs>
    <g id="Page-4" stroke="none" stroke-width="1" fill="none" fill-rule="evenodd">
        <g id="Group-5" transform="translate(3.000000, 3.000000)">
            <g id="Group-15-Copy-5">
                <path d="M32.232511,0.390331665 L51.732511,11.593494 C54.6816727,13.2878498 56.5,16.4295734 56.5,19.8308079 L56.5,42.1691921 C56.5,45.5704266 54.6816727,48.7121502 51.732511,50.406506 L32.232511,61.6096683 C29.3021027,63.2932499 25.6978973,63.2932499 22.767489,61.6096683 L3.26748899,50.406506 C0.318327272,48.7121502 -1.5,45.5704266 -1.5,42.1691921 L-1.5,19.8308079 C-1.5,16.4295734 0.318327272,13.2878498 3.26748899,11.593494 L22.767489,0.390331665 C25.6978973,-1.29324986 29.3021027,-1.29324986 32.232511,0.390331665 Z" id="Polygon" stroke="#000000" stroke-width="3"></path>
                <g id="Group-4-Copy-2" transform="translate(7.289157, 22.425532)" fill="#000000">
                    <polygon id="H-Copy" points="13.9921223 17.5783184 10.0087794 17.5783184 10.462578 16.6742906 10.462578 10.3209841 3.50433334 10.3209841 3.50433334 16.6742906 3.98334294 17.5783184 0 17.5783184 0.453798562 16.6742906 0.453798562 0.904027802 0 0 3.98334294 0 3.50433334 0.904027802 3.50433334 7.28244618 10.462578 7.28244618 13.5131127 7.28244618 13.5131127 16.6742906"></polygon>
                    <polygon id="H-Copy-4" transform="translate(33.425626, 8.789159) scale(-1, 1) translate(-33.425626, -8.789159) " points="40.4216867 17.5783184 36.4383438 17.5783184 36.8921424 16.6742906 36.8921424 10.3209841 29.9338978 10.3209841 29.9338978 16.6742906 30.4129073 17.5783184 26.4295644 17.5783184 26.883363 16.6742906 26.883363 0.904027802 26.4295644 0 30.4129073 0 29.9338978 0.904027802 29.9338978 7.28244618 36.8921424 7.28244618 39.9426772 7.28244618 39.9426772 16.6742906"></polygon>
                    <polygon id="t" points="21.9337438 16.6053972 22.4221251 17.5783184 17.9995617 17.5783184 18.4879429 16.6053972 18.4879429 3.98444805 13.4142045 3.98444805 12.4374421 4.47090862 12.898691 0.552198483 27.5229957 0.552198483 27.9842447 4.47090862 27.0074822 3.98444805 21.9337438 3.98444805"></polygon>
                </g>
            </g>
            <g id="Group-4" transform="translate(73.000000, 4.000000)" fill="#000000" font-family="EvanstonAlehouse1826MediumRnd, Evanston Alehouse" font-weight="500">
                <text id="The-Copy" font-size="20" letter-spacing="3">
                    <tspan x="0" y="19">The</tspan>
                </text>
                <text id="HUNGRY-HAPA" font-size="24" letter-spacing="3.60000014">
                    <tspan x="0" y="49">HUNGRY HAPA</tspan>
                </text>
            </g>
        </g>
    </g>
</svg>