<?xml version="1.0" encoding="UTF-8"?>
<svg width="142px" height="122px" viewBox="0 0 142 122" version="1.1" xmlns="http://www.w3.org/2000/svg" xmlns:xlink="http://www.w3.org/1999/xlink">
    <!-- Generator: Sketch 48.2 (47327) - http://www.bohemiancoding.com/sketch -->
    <title>Group 2</title>
    <desc>Created with Sketch.</desc>
    <defs>
        <path d="M43.9992223,1.43350963 L75.9992223,19.9039291 C78.4748691,21.332874 80,23.9741358 80,26.8325813 L80,63.7698283 C80,66.6282739 78.4748691,69.2695356 75.9992223,70.6984805 L43.9992223,89.1689 C41.524409,90.5973637 38.475591,90.5973637 36.0007777,89.1689 L4.00077773,70.6984805 C1.52513085,69.2695356 7.45548598e-15,66.6282739 7.10542736e-15,63.7698283 L-1.24344979e-14,26.8325813 C-1.40539613e-14,23.9741358 1.52513085,21.332874 4.00077773,19.9039291 L36.0007777,1.43350963 C38.475591,0.00504589709 41.524409,0.00504589709 43.9992223,1.43350963 Z" id="path-1"></path>
    </defs>
    <g id="Page-4" stroke="none" stroke-width="1" fill="none" fill-rule="evenodd">
        <g id="Group-2" transform="translate(-3.000000, 3.000000)">
            <g id="Group-15-Copy-6" transform="translate(35.000000, 0.000000)">
                <g id="Polygon">
                    <use fill="#FFFFFF" fill-rule="evenodd" xlink:href="#path-1"></use>
                    <path stroke="#000000" stroke-width="3" d="M44.7490764,0.134387348 L76.7490764,18.6048068 C79.6889071,20.3016789 81.5,23.4381772 81.5,26.8325813 L81.5,63.7698283 C81.5,67.1642324 79.6889071,70.3007308 76.7490764,71.9976028 L44.7490764,90.4680223 C41.8102357,92.164323 38.1897643,92.164323 35.2509236,90.4680223 L3.25092356,71.9976028 C0.311092885,70.3007308 -1.5,67.1642324 -1.5,63.7698283 L-1.5,26.8325813 C-1.5,23.4381772 0.311092885,20.3016789 3.25092356,18.6048068 L35.2509236,0.134387348 C38.1897643,-1.56191334 41.8102357,-1.56191334 44.7490764,0.134387348 Z"></path>
                </g>
                <g id="Group-4-Copy-2" transform="translate(10.602410, 32.771084)" fill="#000000">
                    <polygon id="H-Copy" points="20.3521779 25.6877097 14.5582246 25.6877097 15.2182952 24.3666275 15.2182952 15.0823553 5.09721213 15.0823553 5.09721213 24.3666275 5.79395336 25.6877097 0 25.6877097 0.660070636 24.3666275 0.660070636 1.32108221 0 0 5.79395336 0 5.09721213 1.32108221 5.09721213 10.6420512 15.2182952 10.6420512 19.6554367 10.6420512 19.6554367 24.3666275"></polygon>
                    <polygon id="H-Copy-4" transform="translate(48.619092, 12.843855) scale(-1, 1) translate(-48.619092, -12.843855) " points="58.7951807 25.6877097 53.0012274 25.6877097 53.661298 24.3666275 53.661298 15.0823553 43.5402149 15.0823553 43.5402149 24.3666275 44.2369561 25.6877097 38.4430028 25.6877097 39.1030734 24.3666275 39.1030734 1.32108221 38.4430028 0 44.2369561 0 43.5402149 1.32108221 43.5402149 10.6420512 53.661298 10.6420512 58.0984395 10.6420512 58.0984395 24.3666275"></polygon>
                    <polygon id="t" points="31.9036274 24.2659517 32.6140001 25.6877097 26.1811806 25.6877097 26.8915533 24.2659517 26.8915533 5.82259023 19.5115702 5.82259023 18.0908248 6.53346926 18.7617324 0.806943761 40.0334483 0.806943761 40.7043559 6.53346926 39.2836105 5.82259023 31.9036274 5.82259023"></polygon>
                </g>
            </g>
            <text id="THE-HUNGRY-HAPA" font-family="EvanstonAlehouse1893Medium, Evanston Alehouse" font-size="13" font-weight="500" letter-spacing="1.95000017" fill="#000000">
                <tspan x="3.38299875" y="119">THE HUNGRY HAPA</tspan>
            </text>
        </g>
    </g>
</svg>