<?xml version="1.0" encoding="UTF-8"?>
<svg width="757px" height="54px" viewBox="0 0 757 54" version="1.1" xmlns="http://www.w3.org/2000/svg" xmlns:xlink="http://www.w3.org/1999/xlink">
    <!-- Generator: Sketch 48.2 (47327) - http://www.bohemiancoding.com/sketch -->
    <title>THE HUNGY HAPA</title>
    <desc>Created with Sketch.</desc>
    <defs></defs>
    <g id="Page-1" stroke="none" stroke-width="1" fill="none" fill-rule="evenodd">
        <path d="M23.184,48.624 C23.2320002,49.632005 23.1000016,50.2919984 22.788,50.604 C22.4759984,50.9160016 21.816005,51.0480002 20.808,51 L13.104,51 C12.095995,51.0480002 11.4360016,50.9160016 11.124,50.604 C10.8119984,50.2919984 10.6799998,49.632005 10.728,48.624 L10.728,13.56 L2.952,13.56 C1.94399496,13.6080002 1.28400156,13.4760016 0.972,13.164 C0.65999844,12.8519984 0.52799976,12.192005 0.576,11.184 L0.576,5.352 C0.52799976,4.34399496 0.65999844,3.68400156 0.972,3.372 C1.28400156,3.05999844 1.94399496,2.92799976 2.952,2.976 L31.176,2.976 C32.184005,2.92799976 32.8439984,3.05999844 33.156,3.372 C33.4680016,3.68400156 33.6000002,4.34399496 33.552,5.352 L33.552,11.184 C33.6000002,12.192005 33.4680016,12.8519984 33.156,13.164 C32.8439984,13.4760016 32.184005,13.6080002 31.176,13.56 L23.184,13.56 L23.184,48.624 Z M80.4960002,21.552 L80.4960002,5.352 C80.448,4.34399496 80.5799986,3.68400156 80.8920002,3.372 C81.2040018,3.05999844 81.8639952,2.92799976 82.8720002,2.976 L90.5760002,2.976 C91.5840052,2.92799976 92.2439986,3.05999844 92.5560002,3.372 C92.8680018,3.68400156 93.0000004,4.34399496 92.9520002,5.352 L92.9520002,48.624 C93.0000004,49.632005 92.8680018,50.2919984 92.5560002,50.604 C92.2439986,50.9160016 91.5840052,51.0480002 90.5760002,51 L82.8720002,51 C81.8639952,51.0480002 81.2040018,50.9160016 80.8920002,50.604 C80.5799986,50.2919984 80.448,49.632005 80.4960002,48.624 L80.4960002,31.272 L62.4240002,31.272 L62.4240002,48.624 C62.4720004,49.632005 62.3400018,50.2919984 62.0280002,50.604 C61.7159986,50.9160016 61.0560052,51.0480002 60.0480002,51 L52.3440002,51 C51.3359952,51.0480002 50.6760018,50.9160016 50.3640002,50.604 C50.0519986,50.2919984 49.92,49.632005 49.9680002,48.624 L49.9680002,5.352 C49.92,4.34399496 50.0519986,3.68400156 50.3640002,3.372 C50.6760018,3.05999844 51.3359952,2.92799976 52.3440002,2.976 L60.0480002,2.976 C61.0560052,2.92799976 61.7159986,3.05999844 62.0280002,3.372 C62.3400018,3.68400156 62.4720004,4.34399496 62.4240002,5.352 L62.4240002,21.552 L80.4960002,21.552 Z M126.288,21.552 L137.952,21.552 C138.960005,21.5039998 139.619999,21.6359984 139.932,21.948 C140.244002,22.2600016 140.376001,22.919995 140.328,23.928 L140.328,29.76 C140.376001,30.768005 140.244002,31.4279984 139.932,31.74 C139.619999,32.0520016 138.960005,32.1840002 137.952,32.136 L126.288,32.136 L126.288,40.416 L138.744,40.416 C139.752005,40.3679998 140.411999,40.4999984 140.724,40.812 C141.036002,41.1240016 141.168001,41.783995 141.12,42.792 L141.12,48.624 C141.168001,49.632005 141.036002,50.2919984 140.724,50.604 C140.411999,50.9160016 139.752005,51.0480002 138.744,51 L116.208,51 C115.199995,51.0480002 114.540002,50.9160016 114.228,50.604 C113.915999,50.2919984 113.784,49.632005 113.832,48.624 L113.832,5.352 C113.784,4.34399496 113.915999,3.68400156 114.228,3.372 C114.540002,3.05999844 115.199995,2.92799976 116.208,2.976 L138.744,2.976 C139.752005,2.92799976 140.411999,3.05999844 140.724,3.372 C141.036002,3.68400156 141.168001,4.34399496 141.12,5.352 L141.12,11.184 C141.168001,12.192005 141.036002,12.8519984 140.724,13.164 C140.411999,13.4760016 139.752005,13.6080002 138.744,13.56 L126.288,13.56 L126.288,21.552 Z M219.168001,21.552 L219.168001,5.352 C219.120001,4.34399496 219.251999,3.68400156 219.564001,3.372 C219.876002,3.05999844 220.535996,2.92799976 221.544001,2.976 L229.248001,2.976 C230.256006,2.92799976 230.915999,3.05999844 231.228001,3.372 C231.540002,3.68400156 231.672001,4.34399496 231.624001,5.352 L231.624001,48.624 C231.672001,49.632005 231.540002,50.2919984 231.228001,50.604 C230.915999,50.9160016 230.256006,51.0480002 229.248001,51 L221.544001,51 C220.535996,51.0480002 219.876002,50.9160016 219.564001,50.604 C219.251999,50.2919984 219.120001,49.632005 219.168001,48.624 L219.168001,31.272 L201.096001,31.272 L201.096001,48.624 C201.144001,49.632005 201.012002,50.2919984 200.700001,50.604 C200.387999,50.9160016 199.728006,51.0480002 198.720001,51 L191.016001,51 C190.007996,51.0480002 189.348002,50.9160016 189.036001,50.604 C188.723999,50.2919984 188.592001,49.632005 188.640001,48.624 L188.640001,5.352 C188.592001,4.34399496 188.723999,3.68400156 189.036001,3.372 C189.348002,3.05999844 190.007996,2.92799976 191.016001,2.976 L198.720001,2.976 C199.728006,2.92799976 200.387999,3.05999844 200.700001,3.372 C201.012002,3.68400156 201.144001,4.34399496 201.096001,5.352 L201.096001,21.552 L219.168001,21.552 Z M264.960001,28.968 C264.960001,30.3120067 264.972001,31.4279956 264.996001,32.316 C265.020001,33.2040044 265.08,33.947997 265.176001,34.548 C265.272001,35.148003 265.416,35.6639978 265.608001,36.096 C265.800002,36.5280022 266.04,37.0079974 266.328001,37.536 C267.000004,38.6880058 267.947995,39.5879968 269.172001,40.236 C270.396007,40.8840032 271.775993,41.208 273.312001,41.208 C274.896009,41.208 276.335994,40.8600035 277.632001,40.164 C278.928007,39.4679965 279.911998,38.520006 280.584001,37.32 C280.872002,36.8399976 281.1,36.3720023 281.268001,35.916 C281.436002,35.4599977 281.568,34.932003 281.664001,34.332 C281.760001,33.731997 281.820001,33.0000043 281.844001,32.136 C281.868001,31.2719957 281.880001,30.2160062 281.880001,28.968 L281.880001,5.352 C281.832001,4.34399496 281.963999,3.68400156 282.276001,3.372 C282.588003,3.05999844 283.247996,2.92799976 284.256001,2.976 L291.960001,2.976 C292.968006,2.92799976 293.627999,3.05999844 293.940001,3.372 C294.252003,3.68400156 294.384001,4.34399496 294.336001,5.352 L294.336001,30.696 C294.336001,32.4720089 294.252002,34.055993 294.084001,35.448 C293.916,36.840007 293.652003,38.1119942 293.292001,39.264 C292.931999,40.4160058 292.452004,41.495995 291.852001,42.504 C291.251998,43.512005 290.520005,44.4959952 289.656001,45.456 C285.671981,49.9680226 280.152036,52.224 273.096001,52.224 C269.399982,52.224 266.040016,51.5880064 263.016001,50.316 C259.991986,49.0439936 257.640009,47.2800113 255.960001,45.024 C254.711995,43.3439916 253.824004,41.4240108 253.296001,39.264 C252.767998,37.1039892 252.504001,34.2480178 252.504001,30.696 L252.504001,5.352 C252.456001,4.34399496 252.587999,3.68400156 252.900001,3.372 C253.212003,3.05999844 253.871996,2.92799976 254.880001,2.976 L262.584001,2.976 C263.592006,2.92799976 264.251999,3.05999844 264.564001,3.372 C264.876003,3.68400156 265.008001,4.34399496 264.960001,5.352 L264.960001,28.968 Z M350.640001,5.352 C350.592001,4.34399496 350.724,3.68400156 351.036001,3.372 C351.348003,3.05999844 352.007996,2.92799976 353.016001,2.976 L360.720001,2.976 C361.728006,2.92799976 362.388,3.05999844 362.700001,3.372 C363.012003,3.68400156 363.144001,4.34399496 363.096001,5.352 L363.096001,48.624 C363.144001,49.632005 363.012003,50.2919984 362.700001,50.604 C362.388,50.9160016 361.728006,51.0480002 360.720001,51 L351.144001,51 C351,51 350.856002,50.9520005 350.712001,50.856 C350.568,50.7599995 350.448002,50.6640005 350.352001,50.568 C350.256001,50.4719995 350.016003,50.1840024 349.632001,49.704 L327.672001,21.624 L327.672001,48.624 C327.720001,49.632005 327.588003,50.2919984 327.276001,50.604 C326.964,50.9160016 326.304006,51.0480002 325.296001,51 L317.592001,51 C316.583996,51.0480002 315.924003,50.9160016 315.612001,50.604 C315.3,50.2919984 315.168001,49.632005 315.216001,48.624 L315.216001,5.352 C315.168001,4.34399496 315.3,3.68400156 315.612001,3.372 C315.924003,3.05999844 316.583996,2.92799976 317.592001,2.976 L327.168001,2.976 C327.312002,2.976 327.456,3.02399952 327.600001,3.12 C327.744002,3.21600048 327.864001,3.31199952 327.960001,3.408 C328.056002,3.50400048 328.295999,3.7919976 328.680001,4.272 L350.640001,32.352 L350.640001,5.352 Z M410.328001,34.08 C409.319996,34.1280002 408.660003,33.9960016 408.348001,33.684 C408.036,33.3719984 407.904001,32.712005 407.952001,31.704 L407.952001,26.736 C407.904001,25.727995 408.036,25.0680016 408.348001,24.756 C408.660003,24.4439984 409.319996,24.3119998 410.328001,24.36 L430.200001,24.36 C431.304007,24.36 432,24.4919987 432.288001,24.756 C432.576003,25.0200013 432.720001,25.6319952 432.720001,26.592 C432.720001,28.7040106 432.492004,30.8999886 432.036001,33.18 C431.579999,35.4600114 430.968005,37.4399916 430.200001,39.12 C428.231991,43.5360221 425.35202,46.9079884 421.560001,49.236 C417.767982,51.5640116 413.280027,52.728 408.096001,52.728 C404.303982,52.728 400.836017,52.1040062 397.692001,50.856 C394.547986,49.6079938 391.848013,47.8680112 389.592001,45.636 C387.33599,43.4039888 385.584008,40.7280156 384.336001,37.608 C383.087995,34.4879844 382.464001,31.0560187 382.464001,27.312 C382.464001,23.4719808 383.099995,19.956016 384.372001,16.764 C385.644008,13.571984 387.41999,10.8480113 389.700001,8.592 C391.980013,6.33598872 394.715985,4.58400624 397.908001,3.336 C401.100017,2.08799376 404.615982,1.464 408.456001,1.464 C416.664042,1.464 422.951979,4.41597048 427.320001,10.32 C428.808009,12.2400096 429.552001,13.5599964 429.552001,14.28 C429.552001,14.6640019 429.432003,14.9639989 429.192001,15.18 C428.952,15.3960011 428.496005,15.6479986 427.824001,15.936 L420.480001,18.96 C419.951999,19.2000012 419.604002,19.3439998 419.436001,19.392 C419.268,19.4400002 419.112002,19.464 418.968001,19.464 C418.487999,19.464 418.056003,19.1760029 417.672001,18.6 C416.423995,16.3439887 415.032009,14.7240049 413.496001,13.74 C411.959994,12.7559951 410.112012,12.264 407.952001,12.264 C406.175992,12.264 404.532009,12.6479962 403.020001,13.416 C401.507994,14.1840038 400.188007,15.2279934 399.060001,16.548 C397.931996,17.8680066 397.056004,19.4519908 396.432001,21.3 C395.807998,23.1480092 395.496001,25.1519892 395.496001,27.312 C395.496001,29.520011 395.867998,31.6559897 396.612001,33.72 C397.356005,35.7840103 398.423994,37.5359928 399.816001,38.976 C401.976012,41.2800115 404.807984,42.432 408.312001,42.432 C411.912019,42.432 414.623992,41.2560118 416.448001,38.904 C416.928004,38.2319966 417.288,37.5600034 417.528001,36.888 C417.768003,36.2159966 417.984,35.280006 418.176001,34.08 L410.328001,34.08 Z M444.528002,6 C444.192,5.5199976 443.976002,5.18400096 443.880002,4.992 C443.784001,4.79999904 443.736002,4.5840012 443.736002,4.344 C443.736002,3.81599736 443.916,3.45600096 444.276002,3.264 C444.636003,3.07199904 445.247997,2.976 446.112002,2.976 L456.768002,2.976 C456.912002,2.976 457.080001,3.02399952 457.272002,3.12 C457.416002,3.21600048 457.536001,3.3239994 457.632002,3.444 C457.728002,3.5640006 457.968,3.88799736 458.352002,4.416 L466.416002,16.08 L474.120002,4.416 C474.600004,3.6959964 474.948,3.2760006 475.164002,3.156 C475.380003,3.0359994 475.943997,2.976 476.856002,2.976 L486.432002,2.976 C487.344006,2.976 487.98,3.07199904 488.340002,3.264 C488.700003,3.45600096 488.880002,3.81599736 488.880002,4.344 C488.880002,4.5840012 488.832002,4.79999904 488.736002,4.992 C488.640001,5.18400096 488.400003,5.54399736 488.016002,6.072 L472.248002,27.96 L472.248002,48.624 C472.296002,49.632005 472.164003,50.2919984 471.852002,50.604 C471.54,50.9160016 470.880007,51.0480002 469.872002,51 L462.168002,51 C461.159996,51.0480002 460.500003,50.9160016 460.188002,50.604 C459.876,50.2919984 459.744001,49.632005 459.792002,48.624 L459.792002,27.96 L444.528002,6 Z M564.624002,21.552 L564.624002,5.352 C564.576002,4.34399496 564.708,3.68400156 565.020002,3.372 C565.332003,3.05999844 565.991997,2.92799976 567.000002,2.976 L574.704002,2.976 C575.712007,2.92799976 576.372,3.05999844 576.684002,3.372 C576.996003,3.68400156 577.128002,4.34399496 577.080002,5.352 L577.080002,48.624 C577.128002,49.632005 576.996003,50.2919984 576.684002,50.604 C576.372,50.9160016 575.712007,51.0480002 574.704002,51 L567.000002,51 C565.991997,51.0480002 565.332003,50.9160016 565.020002,50.604 C564.708,50.2919984 564.576002,49.632005 564.624002,48.624 L564.624002,31.272 L546.552002,31.272 L546.552002,48.624 C546.600002,49.632005 546.468003,50.2919984 546.156002,50.604 C545.844,50.9160016 545.184007,51.0480002 544.176002,51 L536.472002,51 C535.463997,51.0480002 534.804003,50.9160016 534.492002,50.604 C534.18,50.2919984 534.048002,49.632005 534.096002,48.624 L534.096002,5.352 C534.048002,4.34399496 534.18,3.68400156 534.492002,3.372 C534.804003,3.05999844 535.463997,2.92799976 536.472002,2.976 L544.176002,2.976 C545.184007,2.92799976 545.844,3.05999844 546.156002,3.372 C546.468003,3.68400156 546.600002,4.34399496 546.552002,5.352 L546.552002,21.552 L564.624002,21.552 Z M609.624002,42.648 L607.032002,49.2 C606.696,50.0640043 606.408003,50.591999 606.168002,50.784 C605.928001,50.976001 605.328007,51.0480002 604.368002,51 L596.160002,51 C595.247998,51 594.624004,50.904001 594.288002,50.712 C593.952,50.519999 593.784002,50.1600026 593.784002,49.632 C593.784002,49.439999 593.796002,49.2720007 593.820002,49.128 C593.844002,48.9839993 593.976001,48.6480026 594.216002,48.12 L610.848002,4.776 L611.064002,4.2 C611.304003,3.62399712 611.568001,3.26400072 611.856002,3.12 C612.144004,2.97599928 612.695998,2.92799976 613.512002,2.976 L623.232002,2.976 C624.192007,2.92799976 624.792001,2.99999904 625.032002,3.192 C625.272003,3.38400096 625.536001,3.91199568 625.824002,4.776 L642.168002,48.12 C642.360003,48.6000024 642.480002,48.9239992 642.528002,49.092 C642.576002,49.2600008 642.600002,49.4639988 642.600002,49.704 C642.600002,50.1840024 642.432004,50.519999 642.096002,50.712 C641.76,50.904001 641.136007,51 640.224002,51 L631.872002,51 C630.959998,51.0480002 630.372003,50.976001 630.108002,50.784 C629.844001,50.591999 629.568004,50.0400046 629.280002,49.128 L626.832002,42.648 L609.624002,42.648 Z M618.336002,17.808 L613.080002,33.144 L623.448002,33.144 L618.336002,17.808 Z M672.120002,48.624 C672.168003,49.632005 672.036004,50.2919984 671.724002,50.604 C671.412001,50.9160016 670.752007,51.0480002 669.744002,51 L662.040002,51 C661.031997,51.0480002 660.372004,50.9160016 660.060002,50.604 C659.748001,50.2919984 659.616002,49.632005 659.664002,48.624 L659.664002,5.352 C659.616002,4.34399496 659.748001,3.68400156 660.060002,3.372 C660.372004,3.05999844 661.031997,2.92799976 662.040002,2.976 L679.464002,2.976 C682.296016,2.976 684.623993,3.275997 686.448002,3.876 C688.272011,4.476003 689.951995,5.51999256 691.488002,7.008 C694.608018,9.98401488 696.168002,13.9439753 696.168002,18.888 C696.168002,21.288012 695.832006,23.48399 695.160002,25.476 C694.487999,27.46801 693.528009,29.159993 692.280002,30.552 C689.639989,33.5280149 685.51203,35.016 679.896002,35.016 L672.120002,35.016 L672.120002,48.624 Z M676.224002,25.008 C678.624014,25.008 680.375997,24.5280048 681.480002,23.568 C682.584008,22.6079952 683.136002,21.0960103 683.136002,19.032 C683.136002,14.9999798 680.856025,12.984 676.296002,12.984 L672.120002,12.984 L672.120002,25.008 L676.224002,25.008 Z M723.024002,42.648 L720.432002,49.2 C720.096001,50.0640043 719.808004,50.591999 719.568002,50.784 C719.328001,50.976001 718.728007,51.0480002 717.768002,51 L709.560002,51 C708.647998,51 708.024004,50.904001 707.688002,50.712 C707.352001,50.519999 707.184002,50.1600026 707.184002,49.632 C707.184002,49.439999 707.196002,49.2720007 707.220002,49.128 C707.244003,48.9839993 707.376001,48.6480026 707.616002,48.12 L724.248002,4.776 L724.464002,4.2 C724.704004,3.62399712 724.968001,3.26400072 725.256002,3.12 C725.544004,2.97599928 726.095998,2.92799976 726.912002,2.976 L736.632002,2.976 C737.592007,2.92799976 738.192001,2.99999904 738.432002,3.192 C738.672004,3.38400096 738.936001,3.91199568 739.224002,4.776 L755.568002,48.12 C755.760003,48.6000024 755.880002,48.9239992 755.928002,49.092 C755.976003,49.2600008 756.000002,49.4639988 756.000002,49.704 C756.000002,50.1840024 755.832004,50.519999 755.496002,50.712 C755.160001,50.904001 754.536007,51 753.624002,51 L745.272002,51 C744.359998,51.0480002 743.772004,50.976001 743.508002,50.784 C743.244001,50.591999 742.968004,50.0400046 742.680002,49.128 L740.232002,42.648 L723.024002,42.648 Z M731.736002,17.808 L726.480002,33.144 L736.848002,33.144 L731.736002,17.808 Z" id="THE-HUNGY-HAPA" stroke="#000000"></path>
    </g>
</svg>