<?xml version="1.0" encoding="UTF-8"?>
<svg width="300px" height="68px" viewBox="0 0 300 68" version="1.1" xmlns="http://www.w3.org/2000/svg" xmlns:xlink="http://www.w3.org/1999/xlink">
    <!-- Generator: Sketch 48.2 (47327) - http://www.bohemiancoding.com/sketch -->
    <title>Group 19</title>
    <desc>Created with Sketch.</desc>
    <defs>
        <path d="M31.4992223,1.70689835 L50.9992223,12.9623102 C53.4748691,14.3912551 55,17.0325169 55,19.8909624 L55,42.3981942 C55,45.2566398 53.4748691,47.8979015 50.9992223,49.3268464 L31.4992223,60.5822583 C29.024409,62.010722 25.975591,62.010722 23.5007777,60.5822583 L4.00077773,49.3268464 C1.52513085,47.8979015 1.11251143e-15,45.2566398 -1.77635684e-15,42.3981942 L-8.8817842e-15,19.8909624 C-9.23184282e-15,17.0325169 1.52513085,14.3912551 4.00077773,12.9623102 L23.5007777,1.70689835 C25.975591,0.278434613 29.024409,0.278434613 31.4992223,1.70689835 Z" id="path-1"></path>
    </defs>
    <g id="Page-1" stroke="none" stroke-width="1" fill="none" fill-rule="evenodd">
        <g id="Group-19" transform="translate(3.000000, 3.000000)">
            <g id="Group-15-Copy-5">
                <g id="Polygon">
                    <use fill="#FFFFFF" fill-rule="evenodd" xlink:href="#path-1"></use>
                    <path stroke="#000000" stroke-width="3" d="M32.2490764,0.407776065 L51.7490764,11.6631879 C54.6889071,13.36006 56.5,16.4965583 56.5,19.8909624 L56.5,42.3981942 C56.5,45.7925983 54.6889071,48.9290966 51.7490764,50.6259687 L32.2490764,61.8813806 C29.3102357,63.5776813 25.6897643,63.5776813 22.7509236,61.8813806 L3.25092356,50.6259687 C0.311092885,48.9290966 -1.5,45.7925983 -1.5,42.3981942 L-1.5,19.8909624 C-1.5,16.4965583 0.311092885,13.36006 3.25092356,11.6631879 L22.7509236,0.407776065 C25.6897643,-1.28852462 29.3102357,-1.28852462 32.2490764,0.407776065 Z"></path>
                </g>
                <g id="Group-4-Copy-2" transform="translate(7.289157, 22.530120)" fill="#000000">
                    <polygon id="H-Copy" points="13.9921223 17.6603004 10.0087794 17.6603004 10.462578 16.7520564 10.462578 10.3691193 3.50433334 10.3691193 3.50433334 16.7520564 3.98334294 17.6603004 0 17.6603004 0.453798562 16.7520564 0.453798562 0.908244022 0 0 3.98334294 0 3.50433334 0.908244022 3.50433334 7.31641018 10.462578 7.31641018 13.5131127 7.31641018 13.5131127 16.7520564"></polygon>
                    <polygon id="H-Copy-4" transform="translate(33.425626, 8.830150) scale(-1, 1) translate(-33.425626, -8.830150) " points="40.4216867 17.6603004 36.4383438 17.6603004 36.8921424 16.7520564 36.8921424 10.3691193 29.9338978 10.3691193 29.9338978 16.7520564 30.4129073 17.6603004 26.4295644 17.6603004 26.883363 16.7520564 26.883363 0.908244022 26.4295644 0 30.4129073 0 29.9338978 0.908244022 29.9338978 7.31641018 36.8921424 7.31641018 39.9426772 7.31641018 39.9426772 16.7520564"></polygon>
                    <polygon id="t" points="21.9337438 16.6828418 22.4221251 17.6603004 17.9995617 17.6603004 18.4879429 16.6828418 18.4879429 4.00303078 13.4142045 4.00303078 12.4374421 4.49176011 12.898691 0.554773835 27.5229957 0.554773835 27.9842447 4.49176011 27.0074822 4.00303078 21.9337438 4.00303078"></polygon>
                </g>
            </g>
            <g id="Group-6" transform="translate(70.000000, 5.000000)" fill="#000000" font-weight="500">
                <text id="The-Copy" font-family="EvanstonAlehouse1826Medium, Evanston Alehouse" font-size="15" letter-spacing="2.25">
                    <tspan x="0" y="14">The</tspan>
                </text>
                <text id="HUNGRY-HAPA" font-family="EvanstonAlehouse1893Medium, Evanston Alehouse" font-size="28" letter-spacing="4.20000029">
                    <tspan x="0" y="46">HUNGRY HAPA</tspan>
                </text>
            </g>
        </g>
    </g>
</svg>