<?xml version="1.0" encoding="UTF-8"?>
<svg width="305px" height="74px" viewBox="0 0 305 74" version="1.1" xmlns="http://www.w3.org/2000/svg" xmlns:xlink="http://www.w3.org/1999/xlink">
    <!-- Generator: Sketch 48.2 (47327) - http://www.bohemiancoding.com/sketch -->
    <title>Group 18</title>
    <desc>Created with Sketch.</desc>
    <defs></defs>
    <g id="Page-2" stroke="none" stroke-width="1" fill="none" fill-rule="evenodd">
        <g id="Group-18" transform="translate(3.000000, 3.000000)">
            <g id="Group-15-Copy-5">
                <path d="M34.7490764,0.353098321 L56.7490764,13.0515117 C59.6889071,14.7483838 61.5,17.8848821 61.5,21.2792862 L61.5,46.672521 C61.5,50.0669251 59.6889071,53.2034235 56.7490764,54.9002955 L34.7490764,67.5987089 C31.8102357,69.2950096 28.1897643,69.2950096 25.2509236,67.5987089 L3.25092356,54.9002955 C0.311092885,53.2034235 -1.5,50.0669251 -1.5,46.672521 L-1.5,21.2792862 C-1.5,17.8848821 0.311092885,14.7483838 3.25092356,13.0515117 L25.2509236,0.353098321 C28.1897643,-1.34320237 31.8102357,-1.34320237 34.7490764,0.353098321 Z" id="Polygon" stroke="#E7E7DC" stroke-width="3"></path>
                <g id="Group-4-Copy-2" transform="translate(7.951807, 24.578313)">
                    <polygon id="H-Copy" fill="#FFFFF8" points="15.2641335 19.2657823 10.9186684 19.2657823 11.4137214 18.2749706 11.4137214 11.3117665 3.8229091 11.3117665 3.8229091 18.2749706 4.34546502 19.2657823 0 19.2657823 0.495052977 18.2749706 0.495052977 0.99081166 0 0 4.34546502 0 3.8229091 0.99081166 3.8229091 7.98153837 11.4137214 7.98153837 14.7415775 7.98153837 14.7415775 18.2749706"></polygon>
                    <polygon id="H-Copy-4" fill="#FFFFF2" transform="translate(36.464319, 9.632891) scale(-1, 1) translate(-36.464319, -9.632891) " points="44.0963855 19.2657823 39.7509205 19.2657823 40.2459735 18.2749706 40.2459735 11.3117665 32.6551612 11.3117665 32.6551612 18.2749706 33.1777171 19.2657823 28.8322521 19.2657823 29.3273051 18.2749706 29.3273051 0.99081166 28.8322521 0 33.1777171 0 32.6551612 0.99081166 32.6551612 7.98153837 40.2459735 7.98153837 43.5738296 7.98153837 43.5738296 18.2749706"></polygon>
                    <polygon id="t" fill="#FFFFF2" points="23.9277205 18.1994637 24.4605001 19.2657823 19.6358855 19.2657823 20.168665 18.1994637 20.168665 4.36694267 14.6336777 4.36694267 13.5681186 4.90010194 14.0712993 0.60520782 30.0250862 0.60520782 30.5282669 4.90010194 29.4627079 4.36694267 23.9277205 4.36694267"></polygon>
                </g>
            </g>
            <g id="Group-17" transform="translate(75.000000, 7.000000)" fill="#E7E7DC" font-weight="500">
                <text id="The" font-family="EvanstonAlehouse1826Medium, Evanston Alehouse" font-size="16" letter-spacing="2.4000001">
                    <tspan x="0" y="15">The</tspan>
                </text>
                <text id="HUNGRY-HAPA" font-family="EvanstonAlehouse1893Medium, Evanston Alehouse" font-size="28" letter-spacing="4.20000029">
                    <tspan x="0" y="46">HUNGRY HAPA</tspan>
                </text>
            </g>
        </g>
    </g>
</svg>