<?xml version="1.0" encoding="UTF-8"?>
<svg width="76px" height="76px" viewBox="0 0 76 76" version="1.1" xmlns="http://www.w3.org/2000/svg" xmlns:xlink="http://www.w3.org/1999/xlink">
    <!-- Generator: Sketch 48.2 (47327) - http://www.bohemiancoding.com/sketch -->
    <title>Group 5 Copy</title>
    <desc>Created with Sketch.</desc>
    <defs></defs>
    <g id="Page-1" stroke="none" stroke-width="1" fill="none" fill-rule="evenodd">
        <g id="Group-5-Copy" transform="translate(3.000000, 3.000000)">
            <g id="Group-4" transform="translate(10.000000, 24.000000)" fill="#000000">
                <polygon id="H-Copy" points="17.3076923 21.8295218 12.3804574 21.8295218 12.9417879 20.7068607 12.9417879 12.8170478 4.33471933 12.8170478 4.33471933 20.7068607 4.92723493 21.8295218 0 21.8295218 0.561330561 20.7068607 0.561330561 1.12266112 0 0 4.92723493 0 4.33471933 1.12266112 4.33471933 9.04365904 12.9417879 9.04365904 16.7151767 9.04365904 16.7151767 20.7068607"></polygon>
                <polygon id="H-Copy-4" transform="translate(41.346154, 10.914761) scale(-1, 1) translate(-41.346154, -10.914761) " points="50 21.8295218 45.0727651 21.8295218 45.6340956 20.7068607 45.6340956 12.8170478 37.027027 12.8170478 37.027027 20.7068607 37.6195426 21.8295218 32.6923077 21.8295218 33.2536383 20.7068607 33.2536383 1.12266112 32.6923077 0 37.6195426 0 37.027027 1.12266112 37.027027 9.04365904 45.6340956 9.04365904 49.4074844 9.04365904 49.4074844 20.7068607"></polygon>
                <polygon id="t" points="27.1311585 20.621306 27.7352665 21.8295218 22.2647335 21.8295218 22.8688415 20.621306 22.8688415 4.94806123 16.5928313 4.94806123 15.3846154 5.55216916 15.9551618 0.685744141 34.0448382 0.685744141 34.6153846 5.55216916 33.4071687 4.94806123 27.1311585 4.94806123"></polygon>
            </g>
            <rect id="Rectangle" stroke="#000000" stroke-width="3" x="-1.5" y="-1.5" width="73" height="73"></rect>
        </g>
    </g>
</svg>