<?xml version="1.0" encoding="UTF-8"?>
<svg width="392px" height="100px" viewBox="0 0 392 100" version="1.1" xmlns="http://www.w3.org/2000/svg" xmlns:xlink="http://www.w3.org/1999/xlink">
    <!-- Generator: Sketch 48.2 (47327) - http://www.bohemiancoding.com/sketch -->
    <title>Group 16</title>
    <desc>Created with Sketch.</desc>
    <defs>
        <path d="M45.4992223,1.40070299 L78.9992223,20.7369234 C81.4748691,22.1658683 83,24.80713 83,27.6655756 L83,66.3344244 C83,69.19287 81.4748691,71.8341317 78.9992223,73.2630766 L45.4992223,92.599297 C43.024409,94.0277607 39.975591,94.0277607 37.5007777,92.599297 L4.00077773,73.2630766 C1.52513085,71.8341317 5.67912914e-15,69.19287 5.32907052e-15,66.3344244 L-1.0658141e-14,27.6655756 C-1.22776045e-14,24.80713 1.52513085,22.1658683 4.00077773,20.7369234 L37.5007777,1.40070299 C39.975591,-0.0277607489 43.024409,-0.0277607489 45.4992223,1.40070299 Z" id="path-1"></path>
    </defs>
    <g id="Page-1" stroke="none" stroke-width="1" fill="none" fill-rule="evenodd">
        <g id="Group-16" transform="translate(3.000000, 3.000000)">
            <g id="Group-15-Copy-5">
                <g id="Polygon">
                    <use fill="#FFFFFF" fill-rule="evenodd" xlink:href="#path-1"></use>
                    <path stroke="#000000" stroke-width="3" d="M46.2490764,0.101580702 L79.7490764,19.4378011 C82.6889071,21.1346732 84.5,24.2711715 84.5,27.6655756 L84.5,66.3344244 C84.5,69.7288285 82.6889071,72.8653268 79.7490764,74.5621989 L46.2490764,93.8984193 C43.3102357,95.59472 39.6897643,95.59472 36.7509236,93.8984193 L3.25092356,74.5621989 C0.311092885,72.8653268 -1.5,69.7288285 -1.5,66.3344244 L-1.5,27.6655756 C-1.5,24.2711715 0.311092885,21.1346732 3.25092356,19.4378011 L36.7509236,0.101580702 C39.6897643,-1.59471999 43.3102357,-1.59471999 46.2490764,0.101580702 Z"></path>
                </g>
                <g id="Group-4-Copy-2" transform="translate(11.000000, 34.000000)" fill="#000000">
                    <polygon id="H-Copy" points="21.1153846 26.6509988 15.104158 26.6509988 15.7889813 25.280376 15.7889813 15.6479436 5.28835759 15.6479436 5.28835759 25.280376 6.01122661 26.6509988 0 26.6509988 0.684823285 25.280376 0.684823285 1.3706228 0 0 6.01122661 0 5.28835759 1.3706228 5.28835759 11.0411281 15.7889813 11.0411281 20.3925156 11.0411281 20.3925156 25.280376"></polygon>
                    <polygon id="H-Copy-4" transform="translate(50.442308, 13.325499) scale(-1, 1) translate(-50.442308, -13.325499) " points="61 26.6509988 54.9887734 26.6509988 55.6735967 25.280376 55.6735967 15.6479436 45.172973 15.6479436 45.172973 25.280376 45.895842 26.6509988 39.8846154 26.6509988 40.5694387 25.280376 40.5694387 1.3706228 39.8846154 0 45.895842 0 45.172973 1.3706228 45.172973 11.0411281 55.6735967 11.0411281 60.277131 11.0411281 60.277131 25.280376"></polygon>
                    <polygon id="t" points="33.1000134 25.1759248 33.8370251 26.6509988 27.1629749 26.6509988 27.8999866 25.1759248 27.8999866 6.04093736 20.2432541 6.04093736 18.7692308 6.77847435 19.4652974 0.837204152 41.5347026 0.837204152 42.2307692 6.77847435 40.7567459 6.04093736 33.1000134 6.04093736"></polygon>
                </g>
            </g>
            <g id="Group-6" transform="translate(98.000000, 14.000000)" fill="#000000" font-weight="500">
                <text id="The-Copy" font-family="EvanstonAlehouse1826Medium, Evanston Alehouse" font-size="20" letter-spacing="3">
                    <tspan x="0" y="19">The</tspan>
                </text>
                <text id="HUNGRY-HAPA" font-family="EvanstonAlehouse1893Medium, Evanston Alehouse" font-size="36" letter-spacing="5.4000001">
                    <tspan x="0" y="58">HUNGRY HAPA</tspan>
                </text>
            </g>
        </g>
    </g>
</svg>