<?xml version="1.0" encoding="UTF-8"?>
<svg width="253px" height="56px" viewBox="0 0 253 56" version="1.1" xmlns="http://www.w3.org/2000/svg" xmlns:xlink="http://www.w3.org/1999/xlink">
    <!-- Generator: Sketch 48.2 (47327) - http://www.bohemiancoding.com/sketch -->
    <title>Group 18</title>
    <desc>Created with Sketch.</desc>
    <defs></defs>
    <g id="Page-2" stroke="none" stroke-width="1" fill="none" fill-rule="evenodd">
        <g id="Group-18" transform="translate(3.000000, 3.000000)">
            <g id="Group-15-Copy-5">
                <path d="M26.8079,0.526780565 L40.8667235,8.64154207 C43.8065542,10.3384141 45.6176471,13.4749125 45.6176471,16.8693165 L45.6176471,33.0952476 C45.6176471,36.4896517 43.8065542,39.62615 40.8667235,41.3230221 L26.8079,49.4377836 C23.8690592,51.1340843 20.2485879,51.1340843 17.3097471,49.4377836 L3.25092356,41.3230221 C0.311092885,39.62615 -1.5,36.4896517 -1.5,33.0952476 L-1.5,16.8693165 C-1.5,13.4749125 0.311092885,10.3384141 3.25092356,8.64154207 L17.3097471,0.526780565 C20.2485879,-1.16952012 23.8690592,-1.16952012 26.8079,0.526780565 Z" id="Polygon" stroke="#E7E7DC" stroke-width="3"></path>
                <g id="Group-4-Copy-2" transform="translate(5.846917, 18.072289)">
                    <polygon id="H-Copy" fill="#FFFFF8" points="11.2236275 14.1660164 8.02843267 14.1660164 8.39244222 13.4374784 8.39244222 8.31747533 2.81096257 8.31747533 2.81096257 13.4374784 3.19519487 14.1660164 0 14.1660164 0.364009542 13.4374784 0.364009542 0.728537985 0 0 3.19519487 0 2.81096257 0.728537985 2.81096257 5.86877822 8.39244222 5.86877822 10.8393952 5.86877822 10.8393952 13.4374784"></polygon>
                    <polygon id="H-Copy-4" fill="#FFFFF2" transform="translate(26.811999, 7.083008) scale(-1, 1) translate(-26.811999, -7.083008) " points="32.4238129 14.1660164 29.228618 14.1660164 29.5926276 13.4374784 29.5926276 8.31747533 24.0111479 8.31747533 24.0111479 13.4374784 24.3953802 14.1660164 21.2001854 14.1660164 21.5641949 13.4374784 21.5641949 0.728537985 21.2001854 0 24.3953802 0 24.0111479 0.728537985 24.0111479 5.86877822 29.5926276 5.86877822 32.0395806 5.86877822 32.0395806 13.4374784"></polygon>
                    <polygon id="t" fill="#FFFFF2" points="17.5939122 13.3819586 17.9856618 14.1660164 14.4381511 14.1660164 14.8299007 13.3819586 14.8299007 3.21098726 10.7600571 3.21098726 9.97655781 3.60301613 10.3465436 0.44500575 22.0772693 0.44500575 22.4472551 3.60301613 21.6637558 3.21098726 17.5939122 3.21098726"></polygon>
                </g>
            </g>
            <g id="Group-17" transform="translate(55.147059, 2.147059)" fill="#E7E7DC" font-weight="500">
                <text id="The" font-family="EvanstonAlehouse1826Medium, Evanston Alehouse" font-size="16" letter-spacing="2.4000001">
                    <tspan x="0" y="15.4852941">The</tspan>
                </text>
                <text id="HUNGRY-HAPA" font-family="EvanstonAlehouse1893Medium, Evanston Alehouse" font-size="24" letter-spacing="3.60000014">
                    <tspan x="0" y="43.9705882">HUNGRY HAPA</tspan>
                </text>
            </g>
        </g>
    </g>
</svg>